<svg xmlns="http://www.w3.org/2000/svg" width="256" height="256" viewBox="0 0 256 256">
  <defs>
    <linearGradient id="xp" x1="0" y1="0" x2="0" y2="1">
      <stop offset="0" stop-color="#3b78de"/>
      <stop offset="0.48" stop-color="#0a45b5"/>
      <stop offset="1" stop-color="#002d83"/>
    </linearGradient>
    <linearGradient id="screen" x1="0" y1="0" x2="0" y2="1">
      <stop offset="0" stop-color="#252525"/>
      <stop offset="1" stop-color="#030303"/>
    </linearGradient>
  </defs>
  <!-- Windows 95/XP beveled application tile -->
  <rect x="8" y="8" width="240" height="240" rx="22" fill="#808080"/>
  <path d="M18 8h216l-12 12H28v194l-12 12H8V18z" fill="#ffffff"/>
  <path d="M248 18v220l-10 10H18l12-12h194V30z" fill="#404040"/>
  <rect x="24" y="24" width="208" height="208" rx="12" fill="url(#screen)" stroke="#000" stroke-width="7"/>
  <!-- XP-blue title strip -->
  <path d="M30 30h196v36H30z" fill="url(#xp)"/>
  <path d="M30 30h196v4H30z" fill="#74a8ff" opacity=".9"/>
  <rect x="194" y="38" width="24" height="20" fill="#c0c0c0" stroke="#fff" stroke-width="2"/>
  <path d="M200 43l12 10m0-10l-12 10" stroke="#111" stroke-width="4"/>
  <!-- The original SogSketch S mark -->
  <path d="M67 155c12 21 32 34 57 34 29 0 49-13 49-34 0-41-98-12-98-62 0-25 25-42 58-42 25 0 45 8 58 25l-21 21c-12-13-25-21-41-21-16 0-25 5-25 17 0 21 98 4 98 62 0 37-33 58-78 58-37 0-66-17-82-41z" fill="#f3f0e9" stroke="#111" stroke-width="3" stroke-linejoin="round"/>
  <!-- Original red sparkle, rendered as a crisp pixel star -->
  <path d="M198 72h12v18h18v12h-18v18h-12v-18h-18V90h18z" fill="#d51d2b" stroke="#710812" stroke-width="3"/>
  <path d="M201 75h6v18h18v6h-24z" fill="#ff6370" opacity=".8"/>
</svg>
